<svg xmlns="http://www.w3.org/2000/svg" xmlns:xlink="http://www.w3.org/1999/xlink" version="1.1" id="Layer_1" x="0px" y="0px" width="100px" height="100px" viewBox="5.0 -10.0 100.0 135.0" enable-background="new 0 0 100 100" xml:space="preserve">
<g>
	<path d="M78.467,34.463c-9.034-1.262-19.035-0.676-28.103,0.928c-0.015-0.546,0.017-1.101,0.078-1.658   c0.095-0.855,0.314-1.74,0.826-2.578c0.253-0.418,0.581-0.814,0.966-1.18c0.203-0.191,0.419-0.375,0.638-0.549   c1.515-1.202-0.313-1.475-1.575-1.004c-1.012,0.377-1.946,1.364-2.321,2.148c-0.226,0.469-0.397,0.954-0.5,1.429   c-0.086,0.401-0.133,0.799-0.148,1.194c-0.028,0.878,0.158,1.699,0.454,2.482c-0.195,0.038-0.398,0.068-0.592,0.107   C34.17,38.562,19.456,44.66,8.37,53.874c-2.636,2.191-7.147,5.817-4.247,9.348c7.286,8.873,27.508,2.59,36.157-0.182   c3.823-1.226,7.526-2.277,11.37-2.789c1.869-0.249,3.773-0.37,5.739-0.322c10.037,0.25,36.895,0.325,39.33-14.038   C98.111,37.668,84.057,35.245,78.467,34.463z" fill="#FFFFFF"/>
</g>
<text x="0.0" y="117.5" font-size="5.0" font-weight="bold" font-family="Helvetica Neue, Helvetica, Arial-Unicode, Arial, Sans-serif" fill="#000000"></text><text x="0.0" y="122.5" font-size="5.0" font-weight="bold" font-family="Helvetica Neue, Helvetica, Arial-Unicode, Arial, Sans-serif" fill="#000000"></text></svg>